<svg width="140" height="110" viewBox="0 0 140 110" fill="none" xmlns="http://www.w3.org/2000/svg">
<mask id="mask0_1438_11096" style="mask-type:luminance" maskUnits="userSpaceOnUse" x="0" y="0" width="140" height="110">
<path d="M139.815 0H0V109.565H139.815V0Z" fill="white"/>
</mask>
<g mask="url(#mask0_1438_11096)">
<mask id="mask1_1438_11096" style="mask-type:alpha" maskUnits="userSpaceOnUse" x="0" y="0" width="141" height="110">
<path d="M73.9677 25.4545C72.6765 21.581 75.2588 9.40712 78.579 0.830078" stroke="#F2FFA9" stroke-width="2.30566"/>
<path d="M98.2222 26.3767C100.62 23.1488 109.935 9.03814 117.221 9.77595" stroke="#F2FFA9" stroke-width="2.30566"/>
<path d="M117.453 43.0238C124.047 43.1622 133.869 38.5509 137.328 40.0265" stroke="#F2FFA9" stroke-width="2.30566"/>
<path d="M124.877 61.5151C127.875 64.2358 138.527 72.859 139.08 75.0724" stroke="#F2FFA9" stroke-width="2.30566"/>
<path d="M115.654 75.8101C116.945 81.2514 123.493 96.0076 123.493 98.5899" stroke="#F2FFA9" stroke-width="2.30566"/>
<path d="M83.3751 81.436C83.5595 85.8629 77.9337 104.493 76.6426 109.288" stroke="#F2FFA9" stroke-width="2.30566"/>
<path d="M36.2453 69.4463C34.493 71.8442 16.1889 76.279 6.73291 78.7611" stroke="#F2FFA9" stroke-width="2.30535"/>
<path d="M54.8761 77.0088C52.5705 80.4212 44.5468 93.3328 40.2122 98.2208" stroke="#F2FFA9" stroke-width="2.30535"/>
<path d="M22.9672 55.7968C20.6616 59.2091 5.72093 56.8113 1.10962 54.8745" stroke="#F2FFA9" stroke-width="2.30535"/>
<path d="M33.2952 36.0604C30.0672 35.9682 17.34 20.1052 14.2043 16.6929" stroke="#F2FFA9" stroke-width="2.30535"/>
<path d="M53.4013 24.2554C47.0377 21.5808 42.4264 7.00907 41.5042 2.85889" stroke="#F2FFA9" stroke-width="2.30535"/>
</mask>
<g mask="url(#mask1_1438_11096)">
<path d="M76.4172 108.193C76.4087 107.86 76.4336 107.511 76.2197 107.23C75.7427 106.605 75.8569 105.957 76.0278 105.254C76.6286 102.782 77.1063 100.278 77.78 97.8275C78.3317 95.8194 78.5237 93.7331 79.1425 91.7568C79.822 89.5871 80.079 87.32 80.8048 85.1699C81.0368 84.4826 81.3013 83.7994 82.1015 83.5511C82.3232 83.4825 82.4567 83.3087 82.5724 83.1064C82.7718 82.757 83.1077 82.6085 83.4902 82.672C83.9112 82.7421 84.0152 83.1069 84.1091 83.4659C84.4691 84.841 84.143 86.2168 84.145 87.5925C84.148 89.7793 83.4096 91.8275 82.9496 93.9017C82.4584 96.1177 82.2544 98.4047 81.4644 100.571C81.0846 101.613 80.9457 102.77 80.7485 103.881C80.5504 104.997 79.9915 105.952 79.6062 106.981C79.3104 107.771 78.5593 107.903 77.8012 107.837C77.336 107.796 76.9176 107.826 76.5838 108.193C76.5285 108.193 76.4727 108.193 76.4172 108.193Z" fill="#F66B03"/>
<path d="M29.7708 35.3539C28.3274 35.5575 27.2799 34.5283 26.1701 33.649C25.7798 33.3398 25.4241 32.987 25.0333 32.6784C23.3354 31.3369 22.0961 29.5562 20.5782 28.0414C18.941 26.4076 17.4156 24.6752 16.0409 22.8071C15.356 21.8759 14.5551 21.0402 14.1464 19.9187C13.9647 19.4199 14.0506 18.9802 14.3764 18.7021C14.8989 18.2555 15.3285 17.7123 15.9151 17.3257C16.4262 16.9887 16.8696 17.127 17.193 17.4581C17.8823 18.1644 18.4967 18.9452 19.1275 19.707C19.8319 20.558 20.4996 21.4401 21.2207 22.2767C22.7193 24.016 24.1516 25.8269 25.7833 27.4337C27.2427 28.8707 28.522 30.4919 30.14 31.7672C30.5097 32.0586 30.6701 32.4476 30.8048 32.8854C30.9352 33.3089 30.9442 33.8058 31.4858 34.0409C31.7935 34.1747 31.7545 34.5666 31.6972 34.8695C31.638 35.1825 31.4037 35.3373 31.0975 35.3498C30.7105 35.3655 30.3221 35.3537 29.7708 35.3539Z" fill="#F66B03"/>
<path d="M115.298 10.9383C115.462 11.8046 115.166 12.2412 114.579 12.5413C112.404 13.6549 110.48 15.1285 108.599 16.6746C107.212 17.8152 106.002 19.1396 104.784 20.4366C103.865 21.4153 102.981 22.4704 102.215 23.5854C101.711 24.3181 100.931 24.7076 100.387 25.3656C100.263 25.5159 100.075 25.501 99.932 25.4008C99.6199 25.1822 99.3229 25.2547 98.987 25.349C98.5851 25.4617 98.2073 25.3298 97.9489 24.9887C97.6877 24.6438 97.9633 24.3679 98.1112 24.0801C98.211 23.8854 98.3381 23.6963 98.3944 23.4888C99.0643 21.0214 100.396 18.9404 102.088 17.0586C102.66 16.4219 103.158 15.7182 103.731 15.0816C104.052 14.724 104.319 14.2479 104.901 14.23C105.094 14.2241 105.192 14.1024 105.268 13.94C105.733 12.9401 106.687 12.3993 107.487 11.7631C108.952 10.5989 110.566 9.63289 112.295 8.88328C113.992 8.14823 115.017 8.71229 115.294 10.5511C115.322 10.7402 115.298 10.9373 115.298 10.9383Z" fill="#F66B03"/>
<path d="M8.4989 77.9094C8.69147 77.7557 8.95542 77.6414 9.06535 77.4422C10.1769 75.4303 12.3438 75.0303 14.1612 74.1386C16.7622 72.863 19.5889 72.2473 22.4101 71.671C23.5471 71.4386 24.718 71.3774 25.8616 71.1721C27.5777 70.8642 29.2893 70.5156 30.9001 69.8147C31.1978 69.6852 31.4534 69.6173 31.7685 69.7551C32.3146 69.9936 32.8802 70.0724 33.475 69.9049C33.775 69.8204 34.1123 69.8311 34.2931 70.1421C34.4703 70.4474 34.2944 70.7351 34.1298 70.9948C32.7669 73.1468 30.7127 74.1117 28.2923 74.6615C26.3875 75.0943 24.4795 75.4868 22.5542 75.7815C20.9461 76.0278 19.4035 76.5529 17.7875 76.7689C16.9798 76.8768 16.2002 77.2275 15.4197 77.5023C14.1385 77.9535 12.8304 78.2921 11.4855 78.4698C10.4558 78.6057 9.56171 77.8089 8.47437 78.2536C8.48248 78.1388 8.49078 78.0241 8.4989 77.9094Z" fill="#F66B03"/>
<path d="M79.5386 2.89579C79.4296 3.47756 79.3426 4.31165 79.112 5.10369C78.4494 7.38279 77.8323 9.67664 77.3824 12.0024C76.8224 14.8961 76.0567 17.7523 75.7242 20.6883C75.6412 21.4211 75.3626 22.0165 74.7384 22.4201C74.5079 22.5689 74.4311 22.7907 74.3269 23.0199C74.1751 23.3542 73.8706 23.4995 73.514 23.4916C73.1734 23.484 73.0797 23.1821 72.9546 22.9426C71.8938 20.9139 71.764 18.8081 72.3195 16.5993C72.8498 14.4908 73.1667 12.3245 73.7752 10.2412C74.2032 8.77559 74.3791 7.25404 74.8517 5.82287C75.2346 4.6634 75.5203 3.47756 75.9171 2.32418C76.1986 1.50631 76.727 1.17651 77.5731 1.32592C77.7614 1.3593 77.9608 1.39417 78.1466 1.36779C79.2061 1.21709 79.5602 1.53675 79.5386 2.89579Z" fill="#F66B03"/>
<path d="M51.3698 77.5771C51.9846 77.9082 52.3815 78.1523 52.9371 77.9263C53.4283 77.7264 53.6529 78.1726 53.6609 78.5835C53.6915 80.1729 53.6566 81.8581 52.8303 83.1841C51.7044 84.9905 50.6648 86.8566 49.4585 88.6225C48.7271 89.6933 48.1273 90.8902 47.3882 91.9768C46.5235 93.2482 45.5448 94.4405 44.7527 95.7655C44.361 96.421 43.6936 96.476 43.0709 96.2594C42.6192 96.1023 42.2842 96.153 41.757 96.6138C41.9955 95.9995 41.8052 95.7184 41.6108 95.3746C41.2924 94.812 41.3778 94.191 41.7015 93.569C42.6583 91.73 43.7257 89.963 44.9859 88.3193C46.8933 85.8318 48.2706 83.015 49.9615 80.3939C50.231 79.9763 50.5016 79.5344 50.866 79.2097C51.3222 78.803 51.5708 78.3734 51.3698 77.5771Z" fill="#F66B03"/>
<path d="M3.1726 53.5938C3.89879 53.7076 4.56724 53.7653 5.21135 53.9223C7.03946 54.3681 8.84691 54.9187 10.6763 55.3311C12.1082 55.6539 13.6416 55.6821 15.1185 55.6093C16.6341 55.5344 18.1726 55.6639 19.672 55.301C19.8349 55.2616 22.4361 56.602 22.5216 56.7387C22.9166 57.3689 22.3499 57.5517 22.0079 57.8327C20.3964 59.1572 18.4779 59.3988 16.4958 59.3378C14.317 59.2705 12.149 59.1843 9.97834 58.825C7.89237 58.4799 5.85343 58.0667 3.90229 57.2564C2.74522 56.7761 2.00797 55.8468 1.38636 54.8157C1.12647 54.3845 1.44705 54.1093 1.78865 53.9752C2.24868 53.795 2.74504 53.7072 3.1726 53.5938Z" fill="#F66B03"/>
<path d="M123.947 94.775C124.151 95.6006 123.512 96.1257 123.051 96.6728C122.567 97.2481 121.765 97.1898 121.206 96.6564C120.965 96.4271 120.746 96.1689 120.652 95.838C120.251 94.4352 119.854 93.0312 119.454 91.6282C119.409 91.4701 119.381 91.2984 119.299 91.1606C118.053 89.071 117.265 86.7753 116.616 84.468C116.082 82.5701 115.527 80.6489 115.345 78.6559C115.251 77.6261 116.089 77.1419 116.554 76.4644C116.804 76.0992 117.205 76.3821 117.432 76.81C118.031 77.9361 118.386 79.1561 118.875 80.3237C119.63 82.13 120.448 83.9105 121.175 85.7278C121.57 86.7153 121.834 87.7551 122.153 88.7725C122.324 89.3192 122.689 89.7619 122.854 90.3358C123.182 91.4712 123.312 92.6687 123.855 93.7437C124.006 94.0414 124.017 94.3878 123.947 94.775Z" fill="#F66B03"/>
<path d="M42.5893 4.15137C42.8226 4.44096 43.1089 4.65806 43.4553 4.74641C43.9286 4.86704 44.0845 5.19408 44.2149 5.62828C44.5738 6.82556 44.6233 8.07984 44.9962 9.28118C45.4913 10.8767 46.1887 12.3818 46.8566 13.8986C47.8602 16.1779 48.9988 18.39 50.5761 20.3441C50.7318 20.5368 50.9159 20.7523 50.8526 21.0166C50.696 21.6718 50.5744 22.3004 50.9299 22.9506C51.0549 23.1797 50.94 23.5098 50.6976 23.6989C50.4518 23.8911 50.1976 23.7345 50.0012 23.6107C48.5846 22.7173 47.3224 21.7559 46.3667 20.2493C45.1488 18.3293 44.1824 16.307 43.1928 14.2857C42.7575 13.3961 42.3086 12.4527 42.1737 11.4907C41.9812 10.1145 41.3461 8.89143 41.0882 7.54216C40.823 6.1536 40.892 5.70132 42.0815 4.76117C42.2684 4.61342 42.3947 4.38931 42.5893 4.15137Z" fill="#F66B03"/>
<path d="M125.452 39.4259C126.332 39.3268 127.228 38.9696 128.198 38.8917C129.914 38.7541 131.569 38.0943 133.336 38.298C134.274 38.4059 135.528 39.3292 135.819 40.1932C135.909 40.4609 135.753 40.5844 135.616 40.7665C134.758 41.9083 133.456 41.8974 132.238 42.0647C130.848 42.2556 129.475 42.5122 128.101 42.7899C126.485 43.1164 124.902 43.6117 123.243 43.7259C122.645 43.7672 122.048 43.8611 121.459 43.9765C120.264 44.2112 118.7 43.4881 118.163 42.4135C117.983 42.0514 118.189 41.783 118.492 41.684C120.173 41.135 121.696 40.1539 123.458 39.8393C124.107 39.7236 124.668 39.2387 125.452 39.4259Z" fill="#F66B03"/>
<path d="M137.614 74.2318C136.994 74.2254 136.462 73.8766 136.024 73.5032C133.682 71.5089 131.558 69.2833 129.363 67.1328C128.337 66.1286 127.215 65.2213 126.112 64.3C125.66 63.9228 125.484 63.548 125.81 63.0123C125.999 62.7028 125.967 62.3754 125.835 62.0506C125.684 61.6776 125.723 61.3292 126.039 61.0665C126.401 60.7662 126.673 61.0888 126.918 61.2737C129.676 63.355 132.224 65.6806 134.795 67.985C135.894 68.9701 136.903 70.0163 137.841 71.1415C138.397 71.8083 138.391 72.6605 138.491 73.4564C138.56 74.0092 138.284 74.3716 137.614 74.2318Z" fill="#F66B03"/>
</g>
</g>
</svg>
