<svg width="402" height="27" viewBox="0 0 402 27" fill="none" xmlns="http://www.w3.org/2000/svg">
<path d="M61.5376 17.5037C61.2623 17.5119 61.0121 17.4996 60.8017 17.4723C60.6104 17.4474 60.3922 17.403 60.2204 17.3142C59.8356 17.1163 59.6627 16.8036 59.5767 16.6115C59.4227 16.2741 59.3849 15.9046 59.4797 15.5265L59.4821 15.5171L59.4821 15.5171C59.5464 15.2768 59.7446 14.7921 60.3327 14.4591L60.3356 14.4575C62.5684 13.2089 64.9428 12.1763 67.4286 11.3291C62.1842 11.5847 56.9404 11.8697 51.697 12.1969L51.6965 12.197C46.7654 12.5007 41.7667 12.605 36.7709 12.7092C33.56 12.7761 30.3503 12.8431 27.1606 12.963C18.9799 13.2704 10.8623 13.9259 2.94403 15.8086C2.09741 16.017 1.5054 15.2992 1.39974 14.641L1.39846 14.633L1.39738 14.625C1.30948 13.9679 1.62955 13.1669 2.39425 12.9764L2.40076 12.9748L2.40076 12.9748C10.4728 11.0564 18.7186 10.3893 26.9607 10.0751C30.2343 9.95031 33.4965 9.88118 36.7474 9.81229C41.7111 9.70711 46.6484 9.60248 51.56 9.3011C77.3035 7.70668 103.082 6.99982 128.851 6.2932C147.536 5.78081 166.217 5.26856 184.877 4.41814L184.905 5.03524L184.877 4.41814C186.693 4.3355 188.509 4.25258 190.325 4.16966C239.985 1.90208 289.541 -0.360793 339.272 3.36099C345.092 3.7924 351.159 3.95645 357.335 4.12344C361.215 4.22836 365.138 4.33445 369.071 4.50875C379.228 4.95898 389.386 5.86416 398.764 8.39851C399.086 8.48375 399.348 8.58588 399.554 8.69356C399.741 8.79083 399.92 8.91256 400.045 9.06127C400.406 9.46803 400.452 9.92359 400.436 10.2509L400.436 10.2552C400.417 10.5875 400.239 11.3186 399.42 11.6031C399.206 11.6809 398.906 11.725 398.601 11.7565C398.273 11.7905 397.869 11.8158 397.417 11.835C396.512 11.8736 395.38 11.8892 394.2 11.8977C393.654 11.9016 393.099 11.904 392.551 11.9064C390.706 11.9145 388.932 11.9223 387.831 11.9855C383.52 12.2426 379.185 12.4545 374.864 12.636C362.59 13.1737 350.286 13.0925 337.999 12.9187C347.139 13.5743 356.269 14.36 365.387 15.289L365.395 15.2898L365.404 15.2909C365.585 15.3142 365.719 15.3337 365.811 15.3471C365.858 15.354 365.889 15.3585 365.912 15.3615L365.987 15.3615L366.085 15.3954C366.513 15.5436 366.708 15.869 366.76 15.9558C366.998 16.3322 367.034 16.7331 366.977 17.0665L366.966 17.1309L366.941 17.1916C366.981 17.0917 366.883 17.4209 366.724 17.6564C366.54 17.9303 366.183 18.2586 365.613 18.2444C365.286 18.2367 363.945 18.1472 362.474 18.0491C361.036 17.9532 359.474 17.849 358.62 17.8053L358.617 17.8052C356.421 17.6842 354.225 17.5633 352.041 17.4424L352.04 17.4423C349.036 17.2706 346.036 17.0939 343.038 16.9174C338.644 16.6587 334.254 16.4002 329.862 16.1576C307.169 14.9185 284.437 14.1175 261.714 13.4524C257.956 13.3467 254.187 13.2411 250.405 13.1354C183.849 13.516 117.103 18.6619 50.8513 23.7696C40.7423 24.5489 30.6447 25.3274 20.5612 26.0879C19.7328 26.155 19.2138 25.4033 19.1918 24.7106C19.1601 24.0479 19.573 23.2603 20.3767 23.1936L20.3813 23.1932L20.3813 23.1932C30.3678 22.4393 40.3711 21.6684 50.3874 20.8964C65.1623 19.7577 79.9656 18.6168 94.7847 17.5253C92.4303 17.5574 90.0768 17.5855 87.7246 17.6096C80.8212 17.6803 78.5608 17.6223 74.6452 17.5217C73.5367 17.4933 72.2956 17.4614 70.779 17.4281C69.5449 17.4022 68.3249 17.3961 67.0992 17.3901C66.1753 17.3855 65.2481 17.381 64.3093 17.3679C64.0178 17.3681 63.5578 17.3965 63.0387 17.429L63.0151 17.4305C62.5151 17.4618 61.9717 17.4958 61.5376 17.5037ZM61.5376 17.5037C61.5364 17.5037 61.5351 17.5037 61.5338 17.5038L61.5228 16.8861L61.5416 17.5036C61.5403 17.5036 61.5389 17.5037 61.5376 17.5037ZM87.6997 14.7114C80.8382 14.782 78.6006 14.7244 74.6979 14.624C73.591 14.5955 72.3503 14.5636 70.8322 14.5302C69.5852 14.4953 68.3248 14.4905 67.0721 14.4869C75.684 11.2825 85.8927 10.4673 96.1884 10.4995C101.903 10.5174 107.625 10.7957 113.097 11.0639L113.227 11.0703C118.646 11.3358 123.823 11.5895 128.477 11.5632L128.477 11.5632C147.276 11.4484 166.064 11.5425 184.848 11.7858C175.036 12.137 165.219 12.5217 155.396 12.9283L155.396 12.9283C132.858 13.8653 110.249 14.4696 87.6997 14.7114ZM87.6997 14.7114L87.7061 15.3291M87.6997 14.7114L87.7061 15.3291M87.7061 15.3291C80.8332 15.3998 78.5862 15.342 74.6805 15.2415C73.5735 15.213 72.3334 15.1811 70.8168 15.1477C69.5214 15.1115 68.2259 15.1079 66.9304 15.1043C66.4596 15.103 65.9888 15.1017 65.5179 15.0988L197.48 11.9713C183.471 12.4285 169.453 12.9648 155.421 13.5455C132.878 14.4827 110.262 15.0873 87.7061 15.3291ZM339.095 6.25592L339.096 6.25596C344.935 6.68893 351.055 6.85126 357.25 7.01559C360.369 7.09833 363.507 7.18158 366.639 7.30013C373.81 7.5716 380.965 8.02824 387.849 9.08207C387.799 9.08432 387.75 9.08665 387.703 9.08909L387.698 9.08939C383.395 9.3461 379.079 9.55763 374.775 9.73891L374.774 9.73893C360.218 10.3651 345.653 10.1363 331.074 9.90731C326.669 9.83812 322.262 9.76891 317.854 9.72326L317.854 9.72326C293.634 9.48138 269.451 9.6476 245.269 10.101C213.331 9.25787 181.398 8.66892 149.458 8.61803C161.295 8.26489 173.137 7.86015 184.981 7.31505C186.782 7.23304 188.583 7.15076 190.383 7.06849C240.022 4.79985 289.482 2.53943 339.095 6.25592Z" fill="white" stroke="white" stroke-width="1.23547"/>
</svg>
